<svg width="55" height="49" viewBox="0 0 55 49" fill="none" xmlns="http://www.w3.org/2000/svg">
<path d="M14.7 17.4966C15 17.4966 16.3 17.2966 16.5 16.9966L23.9 1.39657C24.2 0.896574 24 0.396575 23.5 0.0965745C23 -0.103425 22.4 -0.00342545 22.1 0.496575L13.8 16.0966C13.6 16.5966 13.7 17.0966 14.2 17.3966C14.4 17.3966 14.5 17.4966 14.7 17.4966Z" fill="#202020"/>
<path d="M39.6 17.4966C39.8 17.4966 39.9 17.4966 40.1 17.3966C40.6 17.0966 40.7 16.5966 40.5 16.0966L32.1 0.496575C31.9 -0.00342545 31.3 -0.103425 30.8 0.0965745C30.3 0.396575 30.2 0.896574 30.4 1.39657L37.8 16.9966C38 17.2966 39.3 17.4966 39.6 17.4966Z" fill="#202020"/>
<path d="M53.3 15.5966H50H4.3H1C0.5 15.5966 0 16.3966 0 17.2966C0 18.1966 0.4 18.9966 1 18.9966H2.5L9.2 46.5966C9.3 47.6966 10.2 48.5966 11.3 48.5966H43C44.1 48.5966 45.1 47.6966 45.1 46.5966L51.8 18.9966H53.3C53.8 18.9966 54.3 18.1966 54.3 17.2966C54.3 16.2966 53.8 15.5966 53.3 15.5966ZM9.5 19.4966H12.5L13.6 30.8966H10.9L9.5 19.4966ZM12.3 43.2966L11.2 33.8966H13.9L14.8 43.2966H12.3ZM17.6 19.4966H20.6L21.1 30.8966H18.3L17.6 19.4966ZM19.1 43.2966L18.5 33.8966H21.2L21.6 43.2966H19.1ZM28.4 43.2966H25.9L25.8 33.8966H28.5L28.4 43.2966ZM28.5 30.8966H25.7L25.6 19.4966H28.6L28.5 30.8966ZM35.2 43.2966H32.7L33.1 33.8966H35.8L35.2 43.2966ZM36 30.8966H33.2L33.7 19.4966H36.7L36 30.8966ZM42 43.2966H39.5L40.4 33.8966H43.1L42 43.2966ZM43.4 30.8966H40.6L41.7 19.4966H44.7L43.4 30.8966Z" fill="#202020"/>
</svg>
