<svg width="130" height="117" viewBox="0 0 130 117" fill="none" xmlns="http://www.w3.org/2000/svg">
<path d="M114 81C114.445 80.9999 114.876 80.8518 115.227 80.5788C115.578 80.3059 115.828 79.9239 115.938 79.493L129.938 24.493C130.013 24.1978 130.02 23.8894 129.957 23.5912C129.895 23.293 129.766 23.013 129.579 22.7725C129.392 22.532 129.152 22.3374 128.879 22.2035C128.605 22.0697 128.305 22 128 22H24.447L19.447 1.525C19.3405 1.0893 19.0906 0.702061 18.7375 0.425485C18.3844 0.148909 17.9485 -0.0009428 17.5 4.4635e-06H2C1.46957 4.47931e-06 0.960859 0.210719 0.585786 0.585791C0.210714 0.960864 0 1.46957 0 2C0 2.53044 0.210714 3.03914 0.585786 3.41422C0.960859 3.78929 1.46957 4 2 4H15.93L37.968 94.164C36.0463 94.8949 34.3595 96.1348 33.0885 97.7509C31.8175 99.367 31.0101 101.298 30.7527 103.338C30.4954 105.378 30.7978 107.45 31.6276 109.331C32.4574 111.212 33.7833 112.832 35.4633 114.017C37.1433 115.202 39.1141 115.908 41.1646 116.059C43.2151 116.21 45.268 115.8 47.1035 114.874C48.9389 113.947 50.4878 112.539 51.5841 110.8C52.6804 109.06 53.2829 107.056 53.327 105H96.068C96.1282 107.833 97.2463 110.542 99.2023 112.592C101.158 114.643 103.811 115.887 106.638 116.081C109.465 116.275 112.263 115.404 114.481 113.64C116.698 111.875 118.175 109.345 118.622 106.546C119.068 103.748 118.451 100.884 116.893 98.5168C115.334 96.15 112.946 94.452 110.199 93.7568C107.452 93.0615 104.544 93.4192 102.047 94.7596C99.5497 96.1 97.6446 98.326 96.706 101H52.689C51.9113 98.7846 50.4657 96.8649 48.5513 95.5055C46.6368 94.1462 44.3479 93.414 42 93.41C41.967 93.41 41.936 93.415 41.9 93.415L38.865 80.986C38.91 80.986 38.954 81 39 81H114Z" fill="black"/>
</svg>
